<svg width="165" height="203" viewBox="0 0 165 203" fill="none" xmlns="http://www.w3.org/2000/svg">
<path d="M22 13C30.1006 11.0499 39.9458 8.67972 49 6.5C63.5166 3.00525 76 0 76 0C76 0 92.4558 3.96159 103 6.5C108.272 7.7692 116.5 9.75 116.5 9.75L130 13V105.858C130 115.936 124.938 125.342 116.527 130.895C103.821 139.283 93.6758 145.981 78.5 156C61.7528 145.922 50.5902 139.205 36.5348 130.747C27.5176 125.32 22 115.554 22 105.03C22 72.3428 22 49.5747 22 13Z" fill="url(#paint0_linear_11_29)"/>
<path d="M22 13C30.1006 11.0499 39.9458 8.67972 49 6.5C63.5166 3.00525 76 0 76 0C76 0 92.4558 3.96159 103 6.5C108.272 7.7692 116.5 9.75 116.5 9.75L130 13V105.858C130 115.936 124.938 125.342 116.527 130.895C103.821 139.283 93.6758 145.981 78.5 156C61.7528 145.922 50.5902 139.205 36.5348 130.747C27.5176 125.32 22 115.554 22 105.03C22 72.3428 22 49.5747 22 13Z" fill="url(#paint1_linear_11_29)"/>
<g filter="url(#filter0_d_11_29)">
<path d="M31.86 25.55L75.6 15.02L119.34 25.55V97.6977C119.34 107.776 114.279 117.181 105.869 122.734L77.625 141.38L46.3917 122.585C37.3745 117.158 31.86 107.404 31.86 96.88V25.55Z" fill="url(#paint2_linear_11_29)"/>
<path d="M31.86 25.55L75.6 15.02L119.34 25.55V97.6977C119.34 107.776 114.279 117.181 105.869 122.734L77.625 141.38L46.3917 122.585C37.3745 117.158 31.86 107.404 31.86 96.88V25.55Z" fill="url(#paint3_linear_11_29)"/>
</g>
<g filter="url(#filter1_d_11_29)">
<ellipse cx="78.3129" cy="73.3787" rx="29.687" ry="22.3787" fill="white"/>
<path d="M56.4804 83.2462C56.7194 81.7995 58.398 81.1061 59.609 81.9538L71.3697 90.187C72.6642 91.0932 72.4558 93.055 71.0012 93.6559L56.9195 99.4731C55.4649 100.074 53.904 98.843 54.1595 97.2965L56.4804 83.2462Z" fill="white"/>
</g>
<path d="M66 67.4865H88V76.7027C88 82.7779 83.0751 87.7027 77 87.7027V87.7027C70.9249 87.7027 66 82.7779 66 76.7027V67.4865Z" fill="url(#paint4_linear_11_29)"/>
<g filter="url(#filter2_i_11_29)">
<circle cx="77.2478" cy="74.5721" r="1.98198" fill="#6D6C6C"/>
<path d="M77.2478 74.5721L78.9642 79.7748H75.5313L77.2478 74.5721Z" fill="#6D6C6C"/>
</g>
<path fill-rule="evenodd" clip-rule="evenodd" d="M82.676 57.264C84.1813 58.7136 85.027 60.6797 85.027 62.7297H82.6486C82.6486 61.3105 82.0535 59.9493 80.9942 58.9458C79.9349 57.9422 78.4981 57.3784 77 57.3784C75.5019 57.3784 74.0651 57.9422 73.0058 58.9458C71.9465 59.9493 71.3513 61.3105 71.3513 62.7297L68.973 62.7297C68.973 60.6797 69.8187 58.7136 71.324 57.264C72.8294 55.8144 74.8711 55 77 55C79.1289 55 81.1706 55.8144 82.676 57.264Z" fill="#E7E7E7"/>
<rect x="68.973" y="62.7297" width="2.37838" height="4.75676" fill="#E7E7E7"/>
<rect x="82.6487" y="62.7297" width="2.37838" height="4.75676" fill="#E7E7E7"/>
<mask id="path-11-outside-1_11_29" maskUnits="userSpaceOnUse" x="2" y="166" width="162" height="29" fill="black">
<rect fill="white" x="2" y="166" width="162" height="29"/>
<path d="M3.17045 194V167.818H12.017C14.071 167.818 15.75 168.189 17.054 168.93C18.3665 169.663 19.3381 170.656 19.9688 171.909C20.5994 173.162 20.9148 174.56 20.9148 176.102C20.9148 177.645 20.5994 179.047 19.9688 180.308C19.3466 181.57 18.3835 182.575 17.0795 183.325C15.7756 184.067 14.1051 184.438 12.0682 184.438H5.72727V181.625H11.9659C13.3722 181.625 14.5014 181.382 15.3537 180.896C16.206 180.411 16.8239 179.754 17.2074 178.928C17.5994 178.092 17.7955 177.151 17.7955 176.102C17.7955 175.054 17.5994 174.116 17.2074 173.29C16.8239 172.463 16.2017 171.815 15.3409 171.347C14.4801 170.869 13.3381 170.631 11.9148 170.631H6.34091V194H3.17045ZM29.622 194V167.818H38.4686C40.5141 167.818 42.193 168.168 43.5055 168.866C44.818 169.557 45.7896 170.507 46.4203 171.717C47.051 172.928 47.3663 174.304 47.3663 175.847C47.3663 177.389 47.051 178.757 46.4203 179.95C45.7896 181.143 44.8223 182.081 43.5183 182.763C42.2143 183.436 40.5482 183.773 38.5197 183.773H31.3607V180.909H38.4175C39.8152 180.909 40.9402 180.705 41.7925 180.295C42.6533 179.886 43.2754 179.307 43.6589 178.557C44.051 177.798 44.247 176.895 44.247 175.847C44.247 174.798 44.051 173.882 43.6589 173.098C43.2669 172.314 42.6405 171.709 41.7797 171.283C40.9189 170.848 39.7811 170.631 38.3663 170.631H32.7925V194H29.622ZM41.9459 182.239L48.3891 194H44.7072L38.3663 182.239H41.9459ZM59.4198 167.818V194H56.2494V167.818H59.4198ZM70.4506 167.818L78.2233 189.858H78.5301L86.3028 167.818H89.6267L80.0131 194H76.7403L67.1267 167.818H70.4506ZM96.1287 194H92.8048L102.418 167.818H105.691L115.305 194H111.981L104.157 171.96H103.953L96.1287 194ZM97.356 183.773H110.754V186.585H97.356V183.773ZM118.493 170.631V167.818H138.129V170.631H129.896V194H126.725V170.631H118.493ZM146.622 194V167.818H162.423V170.631H149.792V179.477H161.605V182.29H149.792V191.188H162.628V194H146.622Z"/>
</mask>
<g filter="url(#filter3_i_11_29)">
<path d="M3.17045 194V167.818H12.017C14.071 167.818 15.75 168.189 17.054 168.93C18.3665 169.663 19.3381 170.656 19.9688 171.909C20.5994 173.162 20.9148 174.56 20.9148 176.102C20.9148 177.645 20.5994 179.047 19.9688 180.308C19.3466 181.57 18.3835 182.575 17.0795 183.325C15.7756 184.067 14.1051 184.438 12.0682 184.438H5.72727V181.625H11.9659C13.3722 181.625 14.5014 181.382 15.3537 180.896C16.206 180.411 16.8239 179.754 17.2074 178.928C17.5994 178.092 17.7955 177.151 17.7955 176.102C17.7955 175.054 17.5994 174.116 17.2074 173.29C16.8239 172.463 16.2017 171.815 15.3409 171.347C14.4801 170.869 13.3381 170.631 11.9148 170.631H6.34091V194H3.17045ZM29.622 194V167.818H38.4686C40.5141 167.818 42.193 168.168 43.5055 168.866C44.818 169.557 45.7896 170.507 46.4203 171.717C47.051 172.928 47.3663 174.304 47.3663 175.847C47.3663 177.389 47.051 178.757 46.4203 179.95C45.7896 181.143 44.8223 182.081 43.5183 182.763C42.2143 183.436 40.5482 183.773 38.5197 183.773H31.3607V180.909H38.4175C39.8152 180.909 40.9402 180.705 41.7925 180.295C42.6533 179.886 43.2754 179.307 43.6589 178.557C44.051 177.798 44.247 176.895 44.247 175.847C44.247 174.798 44.051 173.882 43.6589 173.098C43.2669 172.314 42.6405 171.709 41.7797 171.283C40.9189 170.848 39.7811 170.631 38.3663 170.631H32.7925V194H29.622ZM41.9459 182.239L48.3891 194H44.7072L38.3663 182.239H41.9459ZM59.4198 167.818V194H56.2494V167.818H59.4198ZM70.4506 167.818L78.2233 189.858H78.5301L86.3028 167.818H89.6267L80.0131 194H76.7403L67.1267 167.818H70.4506ZM96.1287 194H92.8048L102.418 167.818H105.691L115.305 194H111.981L104.157 171.96H103.953L96.1287 194ZM97.356 183.773H110.754V186.585H97.356V183.773ZM118.493 170.631V167.818H138.129V170.631H129.896V194H126.725V170.631H118.493ZM146.622 194V167.818H162.423V170.631H149.792V179.477H161.605V182.29H149.792V191.188H162.628V194H146.622Z" fill="url(#paint5_linear_11_29)"/>
</g>
<path d="M3.17045 194H2.17045V195H3.17045V194ZM3.17045 167.818V166.818H2.17045V167.818H3.17045ZM17.054 168.93L16.5597 169.8L16.5664 169.803L17.054 168.93ZM19.9688 171.909L19.0755 172.359L19.0755 172.359L19.9688 171.909ZM19.9688 180.308L19.0743 179.861L19.0719 179.866L19.9688 180.308ZM17.0795 183.325L17.5739 184.195L17.5781 184.192L17.0795 183.325ZM5.72727 184.438H4.72727V185.438H5.72727V184.438ZM5.72727 181.625V180.625H4.72727V181.625H5.72727ZM15.3537 180.896L14.8585 180.028L14.8585 180.028L15.3537 180.896ZM17.2074 178.928L16.3021 178.503L16.3003 178.507L17.2074 178.928ZM17.2074 173.29L16.3002 173.711L16.3038 173.718L17.2074 173.29ZM15.3409 171.347L14.856 172.221L14.8627 172.225L15.3409 171.347ZM6.34091 170.631V169.631H5.34091V170.631H6.34091ZM6.34091 194V195H7.34091V194H6.34091ZM4.17045 194V167.818H2.17045V194H4.17045ZM3.17045 168.818H12.017V166.818H3.17045V168.818ZM12.017 168.818C13.9589 168.818 15.4519 169.17 16.5597 169.8L17.5483 168.061C16.0481 167.208 14.1831 166.818 12.017 166.818V168.818ZM16.5664 169.803C17.7176 170.446 18.5413 171.297 19.0755 172.359L20.862 171.459C20.1349 170.015 19.0154 168.88 17.5415 168.057L16.5664 169.803ZM19.0755 172.359C19.6292 173.459 19.9148 174.7 19.9148 176.102H21.9148C21.9148 174.419 21.5696 172.865 20.862 171.459L19.0755 172.359ZM19.9148 176.102C19.9148 177.504 19.6292 178.751 19.0743 179.861L20.8632 180.755C21.5696 179.343 21.9148 177.785 21.9148 176.102H19.9148ZM19.0719 179.866C18.5437 180.937 17.7256 181.8 16.581 182.458L17.5781 184.192C19.0415 183.35 20.1495 182.202 20.8656 180.751L19.0719 179.866ZM16.5852 182.456C15.4764 183.087 13.9913 183.438 12.0682 183.438V185.438C14.2189 185.438 16.0748 185.047 17.5738 184.195L16.5852 182.456ZM12.0682 183.438H5.72727V185.438H12.0682V183.438ZM6.72727 184.438V181.625H4.72727V184.438H6.72727ZM5.72727 182.625H11.9659V180.625H5.72727V182.625ZM11.9659 182.625C13.475 182.625 14.7943 182.366 15.8489 181.765L14.8585 180.028C14.2086 180.398 13.2693 180.625 11.9659 180.625V182.625ZM15.8489 181.765C16.8671 181.185 17.6368 180.378 18.1145 179.348L16.3003 178.507C16.011 179.13 15.5448 179.636 14.8585 180.028L15.8489 181.765ZM18.1126 179.352C18.5751 178.367 18.7955 177.277 18.7955 176.102H16.7955C16.7955 177.024 16.6238 177.817 16.3021 178.503L18.1126 179.352ZM18.7955 176.102C18.7955 174.927 18.5751 173.84 18.1109 172.861L16.3038 173.718C16.6237 174.393 16.7955 175.181 16.7955 176.102H18.7955ZM18.1145 172.869C17.6338 171.833 16.8532 171.031 15.8192 170.468L14.8627 172.225C15.5502 172.599 16.0139 173.093 16.3003 173.711L18.1145 172.869ZM15.8258 170.472C14.7651 169.884 13.4369 169.631 11.9148 169.631V171.631C13.2392 171.631 14.1952 171.855 14.856 172.221L15.8258 170.472ZM11.9148 169.631H6.34091V171.631H11.9148V169.631ZM5.34091 170.631V194H7.34091V170.631H5.34091ZM6.34091 193H3.17045V195H6.34091V193ZM29.622 194H28.622V195H29.622V194ZM29.622 167.818V166.818H28.622V167.818H29.622ZM43.5055 168.866L43.0355 169.749L43.04 169.752L43.5055 168.866ZM46.4203 171.717L45.5335 172.179L45.5335 172.179L46.4203 171.717ZM46.4203 179.95L45.5362 179.483L45.5362 179.483L46.4203 179.95ZM43.5183 182.763L43.9771 183.651L43.9817 183.649L43.5183 182.763ZM31.3607 183.773H30.3607V184.773H31.3607V183.773ZM31.3607 180.909V179.909H30.3607V180.909H31.3607ZM41.7925 180.295L41.3632 179.392L41.3597 179.394L41.7925 180.295ZM43.6589 178.557L42.7706 178.098L42.7686 178.102L43.6589 178.557ZM41.7797 171.283L41.3289 172.175L41.336 172.179L41.7797 171.283ZM32.7925 170.631V169.631H31.7925V170.631H32.7925ZM32.7925 194V195H33.7925V194H32.7925ZM41.9459 182.239L42.8229 181.758L42.5383 181.239H41.9459V182.239ZM48.3891 194V195H50.0771L49.2661 193.52L48.3891 194ZM44.7072 194L43.827 194.475L44.1103 195H44.7072V194ZM38.3663 182.239V181.239H36.6911L37.4861 182.713L38.3663 182.239ZM30.622 194V167.818H28.622V194H30.622ZM29.622 168.818H38.4686V166.818H29.622V168.818ZM38.4686 168.818C40.4086 168.818 41.9118 169.151 43.0355 169.749L43.9755 167.984C42.4743 167.184 40.6195 166.818 38.4686 166.818V168.818ZM43.04 169.752C44.1887 170.356 45.0051 171.166 45.5335 172.179L47.3071 171.255C46.5741 169.849 45.4474 168.758 43.971 167.981L43.04 169.752ZM45.5335 172.179C46.0806 173.229 46.3663 174.444 46.3663 175.847H48.3663C48.3663 174.164 48.0214 172.626 47.3071 171.255L45.5335 172.179ZM46.3663 175.847C46.3663 177.25 46.0805 178.453 45.5362 179.483L47.3044 180.418C48.0215 179.061 48.3663 177.529 48.3663 175.847H46.3663ZM45.5362 179.483C45.0087 180.481 44.1965 181.28 43.055 181.877L43.9817 183.649C45.4481 182.882 46.5705 181.806 47.3044 180.418L45.5362 179.483ZM43.0595 181.874C41.9411 182.452 40.4462 182.773 38.5197 182.773V184.773C40.6501 184.773 42.4876 184.42 43.9771 183.651L43.0595 181.874ZM38.5197 182.773H31.3607V184.773H38.5197V182.773ZM32.3607 183.773V180.909H30.3607V183.773H32.3607ZM31.3607 181.909H38.4175V179.909H31.3607V181.909ZM38.4175 181.909C39.8992 181.909 41.189 181.694 42.2252 181.197L41.3597 179.394C40.6914 179.715 39.7312 179.909 38.4175 179.909V181.909ZM42.2217 181.199C43.2539 180.708 44.0526 179.984 44.5493 179.012L42.7686 178.102C42.4983 178.63 42.0526 179.065 41.3632 179.392L42.2217 181.199ZM44.5473 179.016C45.0276 178.087 45.247 177.019 45.247 175.847H43.247C43.247 176.771 43.0744 177.51 42.7706 178.098L44.5473 179.016ZM45.247 175.847C45.247 174.673 45.0272 173.598 44.5534 172.651L42.7645 173.545C43.0748 174.166 43.247 174.923 43.247 175.847H45.247ZM44.5534 172.651C44.0545 171.653 43.2595 170.899 42.2233 170.386L41.336 172.179C42.0214 172.518 42.4793 172.975 42.7645 173.545L44.5534 172.651ZM42.2304 170.39C41.18 169.86 39.8701 169.631 38.3663 169.631V171.631C39.6921 171.631 40.6578 171.836 41.3289 172.175L42.2304 170.39ZM38.3663 169.631H32.7925V171.631H38.3663V169.631ZM31.7925 170.631V194H33.7925V170.631H31.7925ZM32.7925 193H29.622V195H32.7925V193ZM41.0689 182.719L47.512 194.48L49.2661 193.52L42.8229 181.758L41.0689 182.719ZM48.3891 193H44.7072V195H48.3891V193ZM45.5875 193.525L39.2466 181.764L37.4861 182.713L43.827 194.475L45.5875 193.525ZM38.3663 183.239H41.9459V181.239H38.3663V183.239ZM59.4198 167.818H60.4198V166.818H59.4198V167.818ZM59.4198 194V195H60.4198V194H59.4198ZM56.2494 194H55.2494V195H56.2494V194ZM56.2494 167.818V166.818H55.2494V167.818H56.2494ZM58.4198 167.818V194H60.4198V167.818H58.4198ZM59.4198 193H56.2494V195H59.4198V193ZM57.2494 194V167.818H55.2494V194H57.2494ZM56.2494 168.818H59.4198V166.818H56.2494V168.818ZM70.4506 167.818L71.3936 167.486L71.1583 166.818H70.4506V167.818ZM78.2233 189.858L77.2802 190.191L77.5156 190.858H78.2233V189.858ZM78.5301 189.858V190.858H79.2378L79.4732 190.191L78.5301 189.858ZM86.3028 167.818V166.818H85.5951L85.3598 167.486L86.3028 167.818ZM89.6267 167.818L90.5654 168.163L91.0592 166.818H89.6267V167.818ZM80.0131 194V195H80.7112L80.9518 194.345L80.0131 194ZM76.7403 194L75.8016 194.345L76.0422 195H76.7403V194ZM67.1267 167.818V166.818H65.6942L66.188 168.163L67.1267 167.818ZM69.5075 168.151L77.2802 190.191L79.1664 189.525L71.3936 167.486L69.5075 168.151ZM78.2233 190.858H78.5301V188.858H78.2233V190.858ZM79.4732 190.191L87.2459 168.151L85.3598 167.486L77.587 189.525L79.4732 190.191ZM86.3028 168.818H89.6267V166.818H86.3028V168.818ZM88.688 167.473L79.0744 193.655L80.9518 194.345L90.5654 168.163L88.688 167.473ZM80.0131 193H76.7403V195H80.0131V193ZM77.6791 193.655L68.0654 167.473L66.188 168.163L75.8016 194.345L77.6791 193.655ZM67.1267 168.818H70.4506V166.818H67.1267V168.818ZM96.1287 194V195H96.8348L97.0711 194.335L96.1287 194ZM92.8048 194L91.8661 193.655L91.3724 195H92.8048V194ZM102.418 167.818V166.818H101.72L101.48 167.473L102.418 167.818ZM105.691 167.818L106.63 167.473L106.389 166.818H105.691V167.818ZM115.305 194V195H116.737L116.244 193.655L115.305 194ZM111.981 194L111.039 194.335L111.275 195H111.981V194ZM104.157 171.96L105.099 171.626L104.863 170.96H104.157V171.96ZM103.953 171.96V170.96H103.246L103.01 171.626L103.953 171.96ZM97.356 183.773V182.773H96.356V183.773H97.356ZM110.754 183.773H111.754V182.773H110.754V183.773ZM110.754 186.585V187.585H111.754V186.585H110.754ZM97.356 186.585H96.356V187.585H97.356V186.585ZM96.1287 193H92.8048V195H96.1287V193ZM93.7435 194.345L103.357 168.163L101.48 167.473L91.8661 193.655L93.7435 194.345ZM102.418 168.818H105.691V166.818H102.418V168.818ZM104.752 168.163L114.366 194.345L116.244 193.655L106.63 167.473L104.752 168.163ZM115.305 193H111.981V195H115.305V193ZM112.923 193.665L105.099 171.626L103.215 172.295L111.039 194.335L112.923 193.665ZM104.157 170.96H103.953V172.96H104.157V170.96ZM103.01 171.626L95.1863 193.665L97.0711 194.335L104.895 172.295L103.01 171.626ZM97.356 184.773H110.754V182.773H97.356V184.773ZM109.754 183.773V186.585H111.754V183.773H109.754ZM110.754 185.585H97.356V187.585H110.754V185.585ZM98.356 186.585V183.773H96.356V186.585H98.356ZM118.493 170.631H117.493V171.631H118.493V170.631ZM118.493 167.818V166.818H117.493V167.818H118.493ZM138.129 167.818H139.129V166.818H138.129V167.818ZM138.129 170.631V171.631H139.129V170.631H138.129ZM129.896 170.631V169.631H128.896V170.631H129.896ZM129.896 194V195H130.896V194H129.896ZM126.725 194H125.725V195H126.725V194ZM126.725 170.631H127.725V169.631H126.725V170.631ZM119.493 170.631V167.818H117.493V170.631H119.493ZM118.493 168.818H138.129V166.818H118.493V168.818ZM137.129 167.818V170.631H139.129V167.818H137.129ZM138.129 169.631H129.896V171.631H138.129V169.631ZM128.896 170.631V194H130.896V170.631H128.896ZM129.896 193H126.725V195H129.896V193ZM127.725 194V170.631H125.725V194H127.725ZM126.725 169.631H118.493V171.631H126.725V169.631ZM146.622 194H145.622V195H146.622V194ZM146.622 167.818V166.818H145.622V167.818H146.622ZM162.423 167.818H163.423V166.818H162.423V167.818ZM162.423 170.631V171.631H163.423V170.631H162.423ZM149.792 170.631V169.631H148.792V170.631H149.792ZM149.792 179.477H148.792V180.477H149.792V179.477ZM161.605 179.477H162.605V178.477H161.605V179.477ZM161.605 182.29V183.29H162.605V182.29H161.605ZM149.792 182.29V181.29H148.792V182.29H149.792ZM149.792 191.188H148.792V192.188H149.792V191.188ZM162.628 191.188H163.628V190.188H162.628V191.188ZM162.628 194V195H163.628V194H162.628ZM147.622 194V167.818H145.622V194H147.622ZM146.622 168.818H162.423V166.818H146.622V168.818ZM161.423 167.818V170.631H163.423V167.818H161.423ZM162.423 169.631H149.792V171.631H162.423V169.631ZM148.792 170.631V179.477H150.792V170.631H148.792ZM149.792 180.477H161.605V178.477H149.792V180.477ZM160.605 179.477V182.29H162.605V179.477H160.605ZM161.605 181.29H149.792V183.29H161.605V181.29ZM148.792 182.29V191.188H150.792V182.29H148.792ZM149.792 192.188H162.628V190.188H149.792V192.188ZM161.628 191.188V194H163.628V191.188H161.628ZM162.628 193H146.622V195H162.628V193Z" fill="black" mask="url(#path-11-outside-1_11_29)"/>
<defs>
<filter id="filter0_d_11_29" x="27.86" y="15.02" width="95.48" height="135.36" filterUnits="userSpaceOnUse" color-interpolation-filters="sRGB">
<feFlood flood-opacity="0" result="BackgroundImageFix"/>
<feColorMatrix in="SourceAlpha" type="matrix" values="0 0 0 0 0 0 0 0 0 0 0 0 0 0 0 0 0 0 127 0" result="hardAlpha"/>
<feOffset dy="5"/>
<feGaussianBlur stdDeviation="2"/>
<feComposite in2="hardAlpha" operator="out"/>
<feColorMatrix type="matrix" values="0 0 0 0 0 0 0 0 0 0 0 0 0 0 0 0 0 0 0.25 0"/>
<feBlend mode="normal" in2="BackgroundImageFix" result="effect1_dropShadow_11_29"/>
<feBlend mode="normal" in="SourceGraphic" in2="effect1_dropShadow_11_29" result="shape"/>
</filter>
<filter id="filter1_d_11_29" x="44.6259" y="51" width="67.3741" height="56.6284" filterUnits="userSpaceOnUse" color-interpolation-filters="sRGB">
<feFlood flood-opacity="0" result="BackgroundImageFix"/>
<feColorMatrix in="SourceAlpha" type="matrix" values="0 0 0 0 0 0 0 0 0 0 0 0 0 0 0 0 0 0 127 0" result="hardAlpha"/>
<feOffset dy="4"/>
<feGaussianBlur stdDeviation="2"/>
<feComposite in2="hardAlpha" operator="out"/>
<feColorMatrix type="matrix" values="0 0 0 0 0 0 0 0 0 0 0 0 0 0 0 0 0 0 0.25 0"/>
<feBlend mode="normal" in2="BackgroundImageFix" result="effect1_dropShadow_11_29"/>
<feBlend mode="normal" in="SourceGraphic" in2="effect1_dropShadow_11_29" result="shape"/>
</filter>
<filter id="filter2_i_11_29" x="75.2658" y="72.5901" width="3.96397" height="11.1847" filterUnits="userSpaceOnUse" color-interpolation-filters="sRGB">
<feFlood flood-opacity="0" result="BackgroundImageFix"/>
<feBlend mode="normal" in="SourceGraphic" in2="BackgroundImageFix" result="shape"/>
<feColorMatrix in="SourceAlpha" type="matrix" values="0 0 0 0 0 0 0 0 0 0 0 0 0 0 0 0 0 0 127 0" result="hardAlpha"/>
<feOffset dy="4"/>
<feGaussianBlur stdDeviation="2"/>
<feComposite in2="hardAlpha" operator="arithmetic" k2="-1" k3="1"/>
<feColorMatrix type="matrix" values="0 0 0 0 0 0 0 0 0 0 0 0 0 0 0 0 0 0 0.25 0"/>
<feBlend mode="normal" in2="shape" result="effect1_innerShadow_11_29"/>
</filter>
<filter id="filter3_i_11_29" x="3.17046" y="167.818" width="159.457" height="30.1818" filterUnits="userSpaceOnUse" color-interpolation-filters="sRGB">
<feFlood flood-opacity="0" result="BackgroundImageFix"/>
<feBlend mode="normal" in="SourceGraphic" in2="BackgroundImageFix" result="shape"/>
<feColorMatrix in="SourceAlpha" type="matrix" values="0 0 0 0 0 0 0 0 0 0 0 0 0 0 0 0 0 0 127 0" result="hardAlpha"/>
<feOffset dy="4"/>
<feGaussianBlur stdDeviation="2"/>
<feComposite in2="hardAlpha" operator="arithmetic" k2="-1" k3="1"/>
<feColorMatrix type="matrix" values="0 0 0 0 0 0 0 0 0 0 0 0 0 0 0 0 0 0 0.25 0"/>
<feBlend mode="normal" in2="shape" result="effect1_innerShadow_11_29"/>
</filter>
<linearGradient id="paint0_linear_11_29" x1="22" y1="11.5" x2="130" y2="122" gradientUnits="userSpaceOnUse">
<stop stop-color="#7FECBE"/>
<stop offset="1" stop-color="#57AC9D"/>
</linearGradient>
<linearGradient id="paint1_linear_11_29" x1="22" y1="11.5" x2="130" y2="122" gradientUnits="userSpaceOnUse">
<stop stop-color="#7FECBE"/>
<stop offset="1" stop-color="#57AC9D"/>
</linearGradient>
<linearGradient id="paint2_linear_11_29" x1="32" y1="26" x2="119" y2="114.5" gradientUnits="userSpaceOnUse">
<stop stop-color="#7AF4BA"/>
<stop offset="1" stop-color="#60E6DD"/>
</linearGradient>
<linearGradient id="paint3_linear_11_29" x1="32" y1="26" x2="119" y2="114.5" gradientUnits="userSpaceOnUse">
<stop stop-color="#7AF4BA"/>
<stop offset="1" stop-color="#60E6DD"/>
</linearGradient>
<linearGradient id="paint4_linear_11_29" x1="66" y1="67.4865" x2="88" y2="87.7027" gradientUnits="userSpaceOnUse">
<stop stop-color="#D9D9D9"/>
<stop offset="1" stop-color="#6A6868"/>
</linearGradient>
<linearGradient id="paint5_linear_11_29" x1="0" y1="159" x2="166.499" y2="184.029" gradientUnits="userSpaceOnUse">
<stop stop-color="#7AF4BA"/>
<stop offset="1" stop-color="#7FECBE"/>
</linearGradient>
</defs>
</svg>
