<svg width="45" height="40" viewBox="0 0 45 40" fill="none" xmlns="http://www.w3.org/2000/svg">
<path fill-rule="evenodd" clip-rule="evenodd" d="M19.1929 21.6469C21.0866 23.3278 23.9379 23.3278 25.8315 21.6469L26.3566 21.1808L35.6147 29.3055H9L18.4642 21L19.1929 21.6469Z" fill="white"/>
<path d="M25.883 20.2488C23.9894 21.9297 21.1381 21.9297 19.2444 20.2488L10.3382 12.343C9.65029 11.7323 10.0822 10.5951 11.0021 10.5951H34.1254C35.0452 10.5951 35.4771 11.7323 34.7892 12.343L25.883 20.2488Z" fill="white"/>
<path d="M27.8269 20.5951L36.4319 12.9655V28.2246L27.8269 20.5951Z" fill="white"/>
<path d="M17.1732 20.5951L8.56818 28.2246L8.56818 12.9655L17.1732 20.5951Z" fill="white"/>
<path fill-rule="evenodd" clip-rule="evenodd" d="M32 25C32 25.5523 32.4477 26 33 26C33.5523 26 34 25.5523 34 25V24H35C35.5523 24 36 23.5523 36 23C36 22.4477 35.5523 22 35 22H34V21C34 20.4477 33.5523 20 33 20C32.4477 20 32 20.4477 32 21V22H31C30.4477 22 30 22.4477 30 23C30 23.5523 30.4477 24 31 24H32V25Z" fill="url(#paint0_linear_37_53)"/>
<path fill-rule="evenodd" clip-rule="evenodd" d="M28.3333 27.3333C28.3333 27.7015 28.6318 28 29 28C29.3682 28 29.6667 27.7015 29.6667 27.3333V26.6667H30.3333C30.7015 26.6667 31 26.3682 31 26C31 25.6318 30.7015 25.3333 30.3333 25.3333H29.6667V24.6667C29.6667 24.2985 29.3682 24 29 24C28.6318 24 28.3333 24.2985 28.3333 24.6667V25.3333H27.6667C27.2985 25.3333 27 25.6318 27 26C27 26.3682 27.2985 26.6667 27.6667 26.6667H28.3333V27.3333Z" fill="url(#paint1_linear_37_53)"/>
<defs>
<linearGradient id="paint0_linear_37_53" x1="33" y1="26" x2="33" y2="20" gradientUnits="userSpaceOnUse">
<stop stop-color="#7FECBE"/>
<stop offset="1" stop-color="#57AC9D"/>
</linearGradient>
<linearGradient id="paint1_linear_37_53" x1="29" y1="28" x2="29" y2="24" gradientUnits="userSpaceOnUse">
<stop stop-color="#7FECBE"/>
<stop offset="1" stop-color="#57AC9D"/>
</linearGradient>
</defs>
</svg>
