<svg width="45" height="40" viewBox="0 0 45 40" fill="none" xmlns="http://www.w3.org/2000/svg">
<path fill-rule="evenodd" clip-rule="evenodd" d="M17.6912 21.706C19.5848 23.387 22.4361 23.387 24.3298 21.706L24.8548 21.2399L34.113 29.3647H7.49829L16.9625 21.0591L17.6912 21.706Z" fill="white"/>
<path d="M24.3812 20.289C22.4876 21.9699 19.6363 21.9699 17.7427 20.289L8.83644 12.3832C8.14852 11.7725 8.58045 10.6353 9.5003 10.6353H32.6236C33.5434 10.6353 33.9754 11.7725 33.2875 12.3832L24.3812 20.289Z" fill="white"/>
<path d="M26.4983 19.8098L35.1033 12.1803V27.4394L26.4983 19.8098Z" fill="white"/>
<path d="M15.9716 19.8875L7.36664 27.5171L7.36664 12.2579L15.9716 19.8875Z" fill="white"/>
<path fill-rule="evenodd" clip-rule="evenodd" d="M39.8495 21.0959C40.235 20.9133 40.5017 20.5206 40.5017 20.0656C40.5017 19.6669 40.2969 19.316 39.9868 19.1124L37.1842 16.3099C36.7711 15.8967 36.1012 15.8967 35.688 16.3099C35.2748 16.7231 35.2748 17.393 35.688 17.8062L36.808 18.9262H30.6377C30.0084 18.9262 29.4983 19.4363 29.4983 20.0656C29.4983 20.6949 30.0084 21.205 30.6377 21.205H36.7478L35.688 22.2649C35.2748 22.6781 35.2748 23.348 35.688 23.7612C36.1012 24.1743 36.7711 24.1743 37.1842 23.7612L39.8495 21.0959Z" fill="url(#paint0_linear_37_44)"/>
<defs>
<linearGradient id="paint0_linear_37_44" x1="40.1768" y1="19.2724" x2="35.688" y2="23.7612" gradientUnits="userSpaceOnUse">
<stop stop-color="#7FECBE"/>
<stop offset="1" stop-color="#57AC9D"/>
</linearGradient>
</defs>
</svg>
